<svg width="116" height="118" viewBox="0 0 116 118" fill="none" xmlns="http://www.w3.org/2000/svg">
<path d="M47.048 7.19932C57.248 3.41932 71.438 5.09932 81.308 10.0193C91.178 14.9093 101.378 25.9493 106.268 36.6593C111.188 47.3693 112.808 62.6693 110.738 74.2793C108.668 85.8893 102.668 99.2093 93.788 106.379C84.908 113.579 70.148 118.229 57.458 117.449C44.798 116.669 26.258 110.009 17.738 101.789C9.24801 93.5993 7.17801 80.7293 6.45801 68.1593C5.73801 55.5893 5.58801 36.9293 13.418 26.3993C21.278 15.8693 46.598 8.33932 53.528 5.03932C60.458 1.73932 54.938 5.93932 55.028 6.62932M50.378 7.07932C60.428 5.15932 76.088 6.83932 86.018 12.8693C95.978 18.8993 106.388 32.8793 110.048 43.2893C113.738 53.6993 111.848 64.9193 108.038 75.3593C104.228 85.8293 96.398 99.9293 87.158 106.019C77.888 112.079 64.658 113.309 52.538 111.839C40.418 110.339 22.958 104.909 14.438 97.0493C5.94801 89.1893 0.45801 76.3493 1.56801 64.6493C2.67801 52.9493 12.938 37.1393 21.128 26.9093C29.288 16.6793 45.458 7.10932 50.558 3.29932C55.658 -0.540678 51.638 2.81932 51.788 3.98932" fill="#868E96"/>
<path d="M46.028 5.57928C56.138 2.42928 68.408 5.87928 79.148 11.3693C89.918 16.8593 105.218 28.3493 110.528 38.5493C115.868 48.7493 114.668 61.6193 111.098 72.5693C107.528 83.4893 98.828 96.9593 89.048 104.189C79.298 111.419 63.938 117.119 52.568 116.009C41.228 114.869 29.288 105.539 20.888 97.3793C12.458 89.2493 3.338 78.3293 2.108 67.1393C0.908003 55.9193 4.988 40.2293 13.598 30.2393C22.208 20.2493 46.178 10.7993 53.768 7.25928C61.358 3.71928 59.498 8.39928 59.108 9.02928M38.948 7.04928C49.028 1.64928 61.928 0.359279 73.568 4.61928C85.208 8.87928 102.548 22.9193 108.818 32.6093C115.088 42.2693 112.838 51.8993 111.188 62.6693C109.508 73.4393 106.328 89.1893 98.828 97.1993C91.328 105.239 77.858 108.959 66.098 110.879C54.368 112.799 37.898 115.169 28.328 108.689C18.728 102.239 12.248 84.5093 8.618 72.0893C4.958 59.6693 2.468 45.0893 6.428 34.2293C10.358 23.3993 26.858 11.1593 32.258 6.98928C37.628 2.78928 37.418 7.76928 38.768 9.05928" stroke="black" stroke-width="3" stroke-linecap="round"/>
<path d="M23.632 49.3257L97.942 51.2757L96.052 58.0257L30.532 61.9857L21.832 57.0357" fill="white"/>
<path d="M26.4508 54.6356C48.6808 50.1356 73.9408 49.3856 92.6308 54.6356M26.4508 54.6356C45.7708 56.1956 69.9208 55.7756 92.6308 54.6356M26.4508 54.6356C24.8308 53.7956 24.6808 55.0556 23.6308 57.4556M26.4508 54.6356C19.1308 55.1456 26.6008 51.2756 23.6308 57.4556M92.6308 54.6356C98.4508 57.3056 94.1908 60.5756 95.4508 57.4556M92.6308 54.6356C91.7908 53.8556 89.5708 53.3156 95.4508 57.4556M95.4508 57.4556C95.4508 58.5656 96.0208 60.7556 95.4508 63.1256M95.4508 57.4556C95.2708 59.0156 95.1508 60.2756 95.4508 63.1256M95.4508 63.1256C100.371 68.5256 91.9408 61.6856 92.6308 65.9756M95.4508 63.1256C91.7908 58.5356 89.3608 68.7956 92.6308 65.9756M92.6308 65.9756C71.6608 67.9556 56.3308 69.0656 26.4508 65.9756M92.6308 65.9756C71.3308 65.5256 48.8908 65.8256 26.4508 65.9756M26.4508 65.9756C21.4108 66.2156 29.1808 67.6256 23.6308 63.1256M26.4508 65.9756C30.7108 71.3756 17.0008 70.3256 23.6308 63.1256M23.6308 63.1256C23.0608 61.5056 23.3908 58.4456 23.6308 57.4556M23.6308 63.1256C23.4808 61.6856 23.3308 59.7656 23.6308 57.4556" stroke="black" stroke-width="3" stroke-linecap="round"/>
<path d="M59.6767 23.4907L64.3867 92.1907L53.3467 92.9407L59.5267 24.8107L60.9367 31.1707" fill="white"/>
<path d="M64.9863 28.7708C65.9163 49.1108 63.0363 73.5008 64.9863 95.5508M64.9863 28.7708C64.4463 49.5008 62.4663 68.7608 64.9863 95.5508M64.9863 28.7708C62.4063 26.2508 63.8763 25.7108 62.4663 26.2508M64.9863 28.7708C67.7163 27.6008 69.6063 21.9608 62.4663 26.2508M64.9863 95.5508C66.2463 99.9008 66.5163 103.081 62.4663 98.0708M64.9863 95.5508C70.8663 96.4508 67.2663 95.8208 62.4663 98.0708M62.4663 98.0708C60.1863 97.7108 59.1663 98.4008 57.3963 98.0708M62.4663 98.0708C61.5363 98.2508 59.9163 98.1608 57.3963 98.0708M57.3963 98.0708C58.2963 101.581 58.0563 92.9408 54.8763 95.5508M57.3963 98.0708C60.8763 91.5908 58.3563 100.051 54.8763 95.5508M54.8763 95.5508C58.6263 75.1508 54.6663 53.7608 54.8763 28.7708M54.8763 95.5508C57.5163 69.5108 56.6163 44.1908 54.8763 28.7708M54.8763 28.7708C49.3263 27.3608 50.4063 28.8608 57.3963 26.2508M54.8763 28.7708C61.5063 32.4908 51.2163 31.5608 57.3963 26.2508M57.3963 26.2508C59.5263 26.6408 61.2963 25.7708 62.4663 26.2508M57.3963 26.2508C59.4963 26.5508 61.0563 26.3408 62.4663 26.2508" stroke="black" stroke-width="3" stroke-linecap="round"/>
<path d="M50.9701 57.3613H67.1101L69.0001 63.0313L67.1101 64.9213H50.9701L49.0801 63.0313L50.9701 57.3613Z" fill="white"/>
<path d="M50.9701 57.3613C54.3301 57.3613 57.6601 57.3613 67.1101 57.3613M50.9701 57.3613C56.1301 57.3613 61.2901 57.3613 67.1101 57.3613M50.9701 57.3613C49.7101 57.3613 49.0801 57.9913 49.0801 59.2513M67.1101 57.3613C68.3701 57.3613 69.0001 57.9913 69.0001 59.2513M69.0001 59.2513C69.0001 60.6613 69.0001 62.0713 69.0001 63.0313M69.0001 59.2513C69.0001 60.4813 69.0001 61.7113 69.0001 63.0313M69.0001 63.0313C69.0001 64.2913 68.3701 64.9213 67.1101 64.9213M67.1101 64.9213C61.4101 64.9213 55.7101 64.9213 50.9701 64.9213M67.1101 64.9213C62.3101 64.9213 57.5101 64.9213 50.9701 64.9213M50.9701 64.9213C49.7101 64.9213 49.0801 64.2913 49.0801 63.0313M49.0801 63.0313C49.0801 62.2513 49.0801 61.5013 49.0801 59.2513M49.0801 63.0313C49.0801 61.8013 49.0801 60.6013 49.0801 59.2513" stroke="white" stroke-width="3" stroke-linecap="round"/>
</svg>
