<svg width="123" height="95" viewBox="0 0 123 95" fill="none" xmlns="http://www.w3.org/2000/svg">
<path fill-rule="evenodd" clip-rule="evenodd" d="M1.85547 45.3521L36.7155 91.7921L87.7755 86.7221L119.155 36.6221L6.86547 38.0921" fill="#868E96"/>
<path d="M6.89539 40.8221C16.8254 56.6921 21.9254 72.5621 36.0854 86.3921M3.56539 37.7621C14.0954 56.9921 23.0654 69.2021 30.1454 87.2921M30.8654 84.9521C42.1454 91.5521 62.0354 91.1021 89.8754 93.2021M30.8354 87.1721C45.6254 88.8221 63.4154 88.4021 86.0354 89.0021M82.3454 92.3321C94.7054 74.7521 104.215 53.0321 120.985 44.5421M83.5154 88.5821C95.5154 76.6721 103.105 64.9721 114.115 42.1421M121.285 40.7021C87.6254 40.1921 56.7554 40.5221 2.27539 40.1921M118.585 38.2721C75.0254 43.6121 31.7954 40.6721 2.60539 42.2621" stroke="black" stroke-width="3" stroke-linecap="round"/>
<path d="M36.4708 39.0742C42.1928 27.7608 48.8977 26.653 64.4354 2.35863M33.351 39.8649C45.9307 26.8682 55.3245 11.5221 62.5302 2.35514" stroke="black" stroke-width="3" stroke-linecap="round"/>
<path d="M84.5161 43.2892C77.5861 29.9392 70.5061 26.0692 61.7461 2.99918M82.0861 42.6292C80.7961 34.8892 74.1361 24.0292 62.4661 2.15918" stroke="black" stroke-width="3" stroke-linecap="round"/>
<path d="M59.5865 61.7475C61.6265 61.7775 65.1665 63.5475 66.7865 64.1775C68.4065 64.8075 68.9765 64.6575 69.2465 65.4975C69.5465 66.3075 69.2465 67.7175 68.5265 69.0975C67.8065 70.5075 66.3665 72.2175 64.8965 73.7775C63.4265 75.3375 61.0865 78.2775 59.6765 78.5175C58.2665 78.7575 57.0365 77.5575 56.4665 75.1875C55.8665 72.8475 55.8365 66.1875 56.1965 64.3575C56.5265 62.5575 57.0965 65.1075 58.5365 64.3275C60.0065 63.5175 64.5665 59.9175 64.9265 59.6475C65.2565 59.4075 61.2065 63.0675 60.6065 62.7975M60.2465 64.5675C60.6665 65.2275 60.8765 62.7075 62.5565 63.0075C64.2665 63.3375 69.3665 64.9875 70.3865 66.3975C71.4365 67.8075 69.4865 70.4475 68.7965 71.5275C68.1065 72.5775 68.5565 72.0675 66.3065 72.7875C64.0865 73.5375 57.6065 75.5475 55.3865 75.8775C53.1665 76.1775 53.7065 76.6575 53.0165 74.6775C52.3565 72.6675 50.4665 66.3975 51.2765 63.8175C52.1165 61.2375 55.5065 59.1675 57.9365 59.2275C60.3665 59.3175 64.9865 63.9375 65.9465 64.2975C66.8765 64.6575 64.7465 61.6575 63.5465 61.4475" fill="white"/>
<path d="M58.2367 60.6375C59.7967 60.0675 61.2667 62.6775 62.7667 63.0075C64.2367 63.3375 65.7667 61.0275 67.0567 62.5875C68.3767 64.1475 70.3567 70.5975 70.5967 72.3675C70.8067 74.1675 70.2367 73.1775 68.4367 73.3875C66.6367 73.5675 61.9567 74.0175 59.7967 73.5975C57.6067 73.1775 56.2567 71.6475 55.3867 70.7775C54.5467 69.9375 55.0867 70.0575 54.6667 68.4075C54.2467 66.7875 51.6967 62.2875 52.8667 60.9075C54.0667 59.5575 60.2167 59.9475 61.7767 60.1875C63.3367 60.3975 62.1667 62.2275 62.2267 62.2575M61.1467 59.3175C62.6167 60.3975 66.0367 65.3475 66.8767 67.0575C67.7167 68.7675 66.7567 67.6575 66.1867 69.6375C65.6467 71.6175 63.9067 78.2475 63.6067 78.8475C63.3367 79.4775 66.2467 74.0175 64.5067 73.3875C62.7667 72.7575 55.3867 75.3375 53.2267 75.0675C51.0367 74.7675 51.8467 73.3875 51.4567 71.6775C51.0667 69.9675 48.9367 66.2175 50.9167 64.7775C52.8667 63.3375 61.2067 64.2675 63.2167 63.0675C65.2567 61.8975 63.1567 58.6575 63.0667 57.6075C62.9467 56.5575 62.8267 55.7775 62.5267 56.7375" stroke="black" stroke-width="3" stroke-linecap="round"/>
</svg>
