<svg width="24" height="24" viewBox="0 0 24 24" fill="none" xmlns="http://www.w3.org/2000/svg">
<path d="M17.5944 21.006H17.5664C13.7247 20.9114 10.0586 19.3775 7.29437 16.708C4.62389 13.9462 3.08906 10.2816 2.99425 6.441C2.98859 5.903 3.19983 5.38536 3.58037 5.005L6.29437 2.293C6.68487 1.90262 7.31787 1.90262 7.70837 2.293L11.7084 6.293C12.0987 6.6835 12.0987 7.3165 11.7084 7.707L10.1124 9.3C10.4084 10.4059 10.9536 11.4294 11.7064 12.292C12.5674 13.045 13.5896 13.5906 14.6944 13.887L16.2944 12.293C16.6849 11.9026 17.3179 11.9026 17.7084 12.293L21.7084 16.293C22.0987 16.6835 22.0987 17.3165 21.7084 17.707L18.9944 20.42C18.6243 20.7939 18.1204 21.0048 17.5944 21.006ZM6.99937 4.415H6.99437L4.99437 6.419C5.07591 9.73766 6.40069 12.9047 8.70637 15.293C11.0948 17.5979 14.2612 18.9225 17.5794 19.005L19.5864 17L16.9944 14.415L15.7014 15.707C15.5164 15.894 15.2644 15.9995 15.0014 16C14.9311 16 14.8611 15.9927 14.7924 15.978C13.126 15.6094 11.5788 14.8285 10.2924 13.707C9.17082 12.4206 8.38998 10.8734 8.02137 9.207C7.95183 8.87577 8.05456 8.53184 8.29437 8.293L9.58637 7L6.99937 4.415Z" fill="#8D8D8D"/>
</svg>
