<svg width="30" height="30" viewBox="0 0 30 30" fill="none" xmlns="http://www.w3.org/2000/svg">
<path d="M6.25 26.25H3.75V25C3.75551 20.1698 7.66979 16.2555 12.5 16.25H17.5C22.3302 16.2555 26.2445 20.1698 26.25 25V26.25H23.75V25C23.7459 21.5499 20.9501 18.7541 17.5 18.75H12.5C9.04993 18.7541 6.25413 21.5499 6.25 25V26.25ZM15 15C11.5482 15 8.75 12.2018 8.75 8.75C8.75 5.29822 11.5482 2.5 15 2.5C18.4518 2.5 21.25 5.29822 21.25 8.75C21.2459 12.2001 18.4501 14.9959 15 15ZM15 5C12.9289 5 11.25 6.67893 11.25 8.75C11.25 10.8211 12.9289 12.5 15 12.5C17.0711 12.5 18.75 10.8211 18.75 8.75C18.75 6.67893 17.0711 5 15 5Z" fill="#A9ADAC"/>
</svg>
