<svg width="92" height="117" viewBox="0 0 92 117" fill="none" xmlns="http://www.w3.org/2000/svg">
<path fill-rule="evenodd" clip-rule="evenodd" d="M4.19141 105L13.7014 59.1001L29.4514 48.9001L38.0614 36.8101L60.1714 46.3801L72.3514 63.6601L86.2414 81.9901L91.4914 93.6301L82.1314 99.9901L66.1414 106.53L9.59141 105.42" fill="#868E96"/>
<path d="M4.91172 108.12C5.72172 100.89 5.66172 78.84 11.6917 67.83C17.6917 56.82 31.6117 42.96 41.0017 42C50.4217 41.07 61.5517 52.11 68.1217 62.16C74.6917 72.21 90.5017 93.99 80.4517 102.33C70.3717 110.67 19.6417 111.27 7.73172 112.23M10.7917 115.05C12.6217 106.8 13.6717 74.64 18.1417 63.15C22.6417 51.66 29.4817 47.37 37.6717 46.14C45.8317 44.91 59.2417 46.44 67.2517 55.77C75.2617 65.07 96.6817 92.94 85.7617 102.03C74.8417 111.15 15.8017 108.36 1.76172 110.4" stroke="black" stroke-width="3" stroke-linecap="round"/>
<path d="M49.1928 8.89669C53.3928 8.89669 57.6528 9.55669 60.2328 11.5367C62.8128 13.5167 64.6428 17.2367 64.6728 20.7467C64.7028 24.2867 63.0228 28.9667 60.4128 32.6567C57.8028 36.3767 52.9428 41.5667 49.0428 42.9167C45.1428 44.2667 40.2828 43.5467 37.0128 40.7567C33.7428 37.9967 30.7128 29.8067 29.4228 26.2667C28.1628 22.6967 27.8928 22.4267 29.3628 19.3667C30.8328 16.3067 35.2728 9.67669 38.2428 7.90669C41.2128 6.16669 45.2328 9.52669 47.2128 8.89669C49.1628 8.29669 49.6728 4.00669 50.0628 4.21669M33.8628 8.29669C37.8528 5.98669 47.6628 5.68669 52.4028 6.58669C57.1728 7.45669 59.9328 10.8767 62.3328 13.6067C64.7328 16.3367 68.0328 19.1267 66.8028 22.9367C65.5728 26.7167 58.7028 33.0167 54.9528 36.3767C51.2028 39.7367 48.3228 43.4867 44.2728 43.0667C40.2228 42.6767 33.4728 37.0967 30.6828 33.9167C27.8928 30.7367 27.2328 26.4767 27.5028 24.0467C27.7728 21.6167 30.2328 21.8867 32.3028 19.3067C34.3728 16.6967 39.4128 10.0667 39.9228 8.47669C40.4328 6.88669 36.0828 9.55669 35.3628 9.82669" fill="#868E96"/>
<path d="M51.323 9.79667C54.983 10.6667 58.913 10.4567 61.313 13.7867C63.683 17.1167 65.963 26.1167 65.573 29.8367C65.153 33.5267 62.723 34.6667 58.883 36.0167C55.073 37.3667 47.243 38.5067 42.563 37.9067C37.913 37.3367 33.563 34.7567 30.953 32.5067C28.313 30.2867 27.473 28.0967 26.813 24.4667C26.153 20.8667 24.563 13.8767 27.023 10.9067C29.483 7.93667 36.833 6.79667 41.543 6.64667C46.253 6.52667 52.733 9.82667 55.223 10.0667C57.743 10.3067 56.393 8.41667 56.543 8.14667M42.323 8.62667C46.373 8.38667 50.663 6.64667 53.903 9.13667C57.143 11.6567 59.633 20.4767 61.703 23.6567C63.773 26.8367 68.183 25.5467 66.263 28.3067C64.343 31.0667 54.983 37.8767 50.183 40.2467C45.383 42.5867 41.693 43.4867 37.463 42.4067C33.233 41.3267 26.153 36.8567 24.863 33.7967C23.573 30.7067 28.823 28.2467 29.693 23.8967C30.593 19.5167 28.073 11.2367 30.113 7.57667C32.153 3.91667 40.163 1.78667 41.963 1.90667C43.793 2.05667 40.973 7.06667 41.003 8.32667" stroke="black" stroke-width="3" stroke-linecap="round"/>
</svg>
